Coordinates
version=1
nRows=24
nColumns=24
inDegrees=yes

Units are S.I. units (second, meters, Newtons, ...)
Angles are in degrees.

endheader
time	pelvis_tilt	pelvis_list	pelvis_rotation	pelvis_tx	pelvis_ty	pelvis_tz	hip_flexion_r	hip_adduction_r	hip_rotation_r	knee_angle_r	ankle_angle_r	subtalar_angle_r	mtp_angle_r	hip_flexion_l	hip_adduction_l	hip_rotation_l	knee_angle_l	ankle_angle_l	subtalar_angle_l	mtp_angle_l	lumbar_extension	lumbar_bending	lumbar_rotation
      4.57000000	    -11.94902957	      7.60461735	      3.22933457	     -1.58759740	     -0.03193770	      2.02884069	     17.60281044	    -13.30665117	    -12.60755278	    -59.61219352	    -19.32358907	    -11.08515815	     22.45649851	     28.74628243	     11.83174015	     -6.67392171	    -21.85394743	     -2.66481274	     -6.03708963	     16.74777947	      8.53611963	     -9.66830977	     -3.06945237
      4.58000000	    -11.79472756	      7.68789532	      3.14631575	     -1.57519026	     -0.02967992	      2.02812452	     19.24270044	    -13.22298347	    -11.76431092	    -60.64900473	    -17.93175135	    -11.56643919	     22.61864379	     27.28858540	     11.94288118	     -6.67902883	    -21.10598155	     -2.06608637	     -5.66412684	     16.96266087	      8.34659217	     -9.68329155	     -3.41141524
      4.59000000	    -11.64627120	      7.71734809	      2.96301382	     -1.56292857	     -0.02755891	      2.02748335	     20.91808064	    -12.99565030	    -10.82117978	    -61.40943218	    -16.57456585	    -11.66349803	     22.91400957	     25.81422627	     11.98584409	     -6.66896487	    -20.27962174	     -1.48406117	     -5.44171564	     17.12832743	      8.17243192	     -9.60437278	     -3.58504961
      4.60000000	    -11.51020677	      7.73136944	      2.73975389	     -1.55076731	     -0.02553242	      2.02694074	     22.56776774	    -12.67945429	     -9.86540724	    -61.82981464	    -15.40097803	    -11.67638979	     23.87242615	     24.32949637	     12.01059075	     -6.65190576	    -19.37147291	     -1.01745367	     -5.30826360	     17.28005592	      8.01176329	     -9.50496187	     -3.68631722
      4.61000000	    -11.38244172	      7.61769960	      2.68116439	     -1.53869008	     -0.02363227	      2.02620099	     24.07176596	    -12.27172626	     -9.16740249	    -61.91743717	    -14.02854322	    -11.35006557	     24.49843439	     22.86802197	     11.97979562	     -6.44006935	    -18.50614827	     -0.51656113	     -5.13931927	     17.30083877	      7.83149947	     -9.30385938	     -3.99759595
      4.62000000	    -11.18669199	      7.36600099	      2.59185503	     -1.52672509	     -0.02164553	      2.02541949	     25.38347189	    -11.68769374	     -8.55730326	    -61.57063525	    -13.01800982	    -11.11906853	     26.37771212	     21.34913163	     11.81445947	     -6.11239011	    -17.65693585	      0.00627195	     -5.06963080	     16.78033291	      7.57045073	     -8.93891938	     -4.25642219
      4.63000000	    -11.10910257	      7.05930669	      2.55825283	     -1.51490567	     -0.01991518	      2.02464441	     26.74522527	    -11.05673444	     -8.07339956	    -60.99626036	    -11.79792416	    -10.75999305	     26.53830533	     19.99629630	     11.59531754	     -5.79659429	    -16.83345712	      0.38911520	     -5.05894557	     16.68435072	      7.41644985	     -8.53956591	     -4.51870984
      4.64000000	    -10.93218271	      6.69704508	      2.58797673	     -1.50314836	     -0.01818405	      2.02375847	     27.86823306	    -10.42918270	     -7.80203559	    -60.10671613	    -10.67711741	    -10.45164644	     26.45345942	     18.53966740	     11.33952055	     -5.40365883	    -16.01093355	      0.76374445	     -5.09091879	     16.41191276	      7.13528108	     -8.07978906	     -4.84505972
      4.65000000	    -10.70665878	      6.27267769	      2.72303214	     -1.49147939	     -0.01653519	      2.02277153	     28.81255620	     -9.82470376	     -7.78816609	    -58.93262491	     -9.68653590	    -10.27005091	     25.91293434	     17.04575145	     11.04233068	     -4.88021489	    -15.21486108	      1.14297969	     -5.14187544	     15.92617832	      6.77730896	     -7.57228855	     -5.24757827
      4.66000000	    -10.53563607	      5.90403087	      2.76602250	     -1.47990230	     -0.01521545	      2.02199294	     29.80848282	     -9.23248818	     -7.72234932	    -57.61935054	     -8.65770349	    -10.13860166	     23.74303468	     15.63810980	     10.76007956	     -4.46984231	    -14.45678841	      1.68702208	     -5.15136274	     14.54101564	      6.47696460	     -7.11442209	     -5.48530733
      4.67000000	    -10.50275504	      5.45257158	      3.09069748	     -1.46834996	     -0.01422817	      2.02082363	     30.77143525	     -8.79208763	     -8.09128241	    -55.99757535	     -7.96154344	    -10.10503022	     23.32581831	     14.40494351	     10.45274326	     -3.88322214	    -13.72676706	      2.03061918	     -5.18330149	     14.33227952	      6.30299270	     -6.60924934	     -5.97606359
      4.68000000	    -10.34956154	      5.07831015	      3.24457808	     -1.45679792	     -0.01336239	      2.01998976	     31.57696804	     -8.31719986	     -8.28937167	    -54.24693340	     -7.03792495	     -9.92728050	     20.63284648	     13.02698312	     10.15994794	     -3.44778922	    -12.96669656	      2.55565879	     -5.17048411	     13.09771428	      6.01454634	     -6.16140537	     -6.23446851
      4.69000000	    -10.27126869	      4.66534861	      3.55677986	     -1.44529626	     -0.01277542	      2.01892829	     32.30904514	     -7.95562131	     -8.74591756	    -52.20035836	     -6.46313746	     -9.81342477	     20.24017927	     11.74674631	      9.85058861	     -2.92808984	    -12.19755874	      2.86363748	     -5.25461878	     12.93304199	      5.79275512	     -5.68870054	     -6.64578987
      4.70000000	    -10.15872111	      4.32052849	      3.73701855	     -1.43378703	     -0.01239668	      2.01816484	     32.96859626	     -7.56286002	     -9.02967378	    -50.05381169	     -5.61025245	     -9.43535671	     17.68923550	     10.42721600	      9.55668500	     -2.56035001	    -11.43431834	      3.38393517	     -5.19596489	     11.83013872	      5.54937872	     -5.27746054	     -6.87572021
      4.71000000	    -10.13094468	      3.97482916	      4.01740435	     -1.42231099	     -0.01231557	      2.01725890	     33.59739825	     -7.28729034	     -9.50289806	    -47.66273230	     -5.09132089	     -9.05158972	     17.44185402	      9.21307700	      9.27062468	     -2.15302380	    -10.66289631	      3.70185548	     -5.22779185	     11.67831853	      5.39048332	     -4.87473732	     -7.20027232
      4.72000000	    -10.04624748	      3.67015202	      4.23194780	     -1.41080552	     -0.01237390	      2.01650632	     34.09443289	     -7.02327550	     -9.94856944	    -45.12342559	     -4.57461205	     -8.46758813	     17.10967342	      7.92791796	      8.98982274	     -1.85525933	     -9.87307088	      4.05335037	     -5.19566754	     11.38063202	      5.17590382	     -4.50567485	     -7.44707361
      4.73000000	    -10.01926782	      3.39507894	      4.38943274	     -1.39930148	     -0.01269215	      2.01593017	     34.59573689	     -6.76654652	    -10.38048919	    -42.45509350	     -4.11917222	     -7.67854908	     16.93588422	      6.73179705	      8.71151018	     -1.65869564	     -9.13174348	      4.44997643	     -5.08522866	     10.98983708	      5.02406862	     -4.17263297	     -7.62565699
      4.74000000	    -10.03910279	      3.12834109	      4.51948336	     -1.38778170	     -0.01326572	      2.01544108	     35.07707587	     -6.53345722	    -10.90748597	    -39.67025514	     -3.69747543	     -6.66155195	     17.08122826	      5.62334396	      8.42677373	     -1.57264676	     -8.45607887	      4.90806260	     -4.90491503	     10.65940823	      4.92701139	     -3.84694652	     -7.75175561
      4.75000000	    -10.03063480	      2.81948969	      4.58108306	     -1.37626372	     -0.01393400	      2.01511893	     35.45044704	     -6.22192682	    -11.47972248	    -36.74845185	     -3.41537043	     -5.44003838	     17.58535450	      4.52227875	      8.07079641	     -1.60127798	     -7.83641772	      5.43377360	     -4.64384324	     10.32096807	      4.80042913	     -3.46702347	     -7.83968163
      4.76000000	     -9.92567129	      2.39937457	      4.52060310	     -1.36467695	     -0.01457018	      2.01510496	     35.60457058	     -5.68379087	    -12.04599050	    -33.60700845	     -3.41269911	     -4.29085588	     19.14160519	      3.36073838	      7.55545268	     -1.76083483	     -7.29262724	      6.09791309	     -4.28622154	      9.75897563	      4.58960622	     -2.95906517	     -7.77139935
      4.77000000	    -10.01998895	      2.06725405	      4.39472647	     -1.35326797	     -0.01559568	      2.01517475	     35.95596854	     -5.24075817	    -12.64210588	    -30.46586302	     -3.49052625	     -2.75474264	     22.13975267	      2.50062398	      7.15134835	     -2.13102407	     -6.88255002	      6.72420183	     -3.88688663	      9.29282806	      4.55774323	     -2.54410874	     -7.60027769
      4.78000000	    -10.27635932	      1.64686515	      4.33750008	     -1.34190376	     -0.01685167	      2.01536578	     36.39745145	     -4.69770259	    -13.23163453	    -27.35262343	     -3.19248054	     -1.03420301	     22.45727150	      1.92813104	      6.64855879	     -2.53649529	     -6.65695370	      7.36016698	     -3.39225801	      9.44771961	      4.69503071	     -2.07325114	     -7.54221749
      4.79000000	    -10.31138530	      1.19986822	      4.11302991	     -1.33050775	     -0.01796407	      2.01588689	     36.48960645	     -3.95249238	    -13.59772984	    -24.11938849	     -3.00318670	      0.55370354	     22.92039316	      1.15050078	      6.07703794	     -3.20067233	     -6.50199281	      8.05230998	     -2.77841440	      9.63727921	      4.58586757	     -1.54254460	     -7.30126635
      4.80000000	    -10.41801645	      0.86276777	      3.94691313	     -1.31889462	     -0.01936579	      2.01648221	     36.53908485	     -3.32052953	    -13.87526413	    -20.88325099	     -2.69563985	      2.15289110	     23.00700510	      0.48198408	      5.63239129	     -3.84212188	     -6.45220585	      8.68560487	     -2.19617037	      9.79977075	      4.57141498	     -1.15416332	     -7.07867505
